<svg width="1600" height="480" viewBox="0 0 1600 480" xmlns="http://www.w3.org/2000/svg">
  <rect width="1600" height="480" rx="32" fill="#FAF4E9"/>
  <g transform="translate(78 58) scale(.355)">
    <path d="M292 210H618L793 385V755C793 839 740 884 656 884H292C218 884 180 838 180 764V330C180 250 218 210 292 210Z" fill="none" stroke="#192E59" stroke-width="76" stroke-linecap="round" stroke-linejoin="round"/>
    <path d="M620 213V354C620 382 638 395 668 395H785" fill="none" stroke="#192E59" stroke-width="76" stroke-linecap="round" stroke-linejoin="round"/>
    <path d="M257 766C340 636 522 708 548 599C568 515 422 509 438 444C454 382 587 399 681 390" fill="none" stroke="#192E59" stroke-width="60" stroke-linecap="round" stroke-linejoin="round"/>
    <circle cx="716" cy="387" r="47" fill="#C75738"/>
  </g>
  <text x="466" y="226" fill="#192E59" font-family="-apple-system, BlinkMacSystemFont, 'Segoe UI', sans-serif" font-size="104" font-weight="760">DayTrace</text>
  <text x="470" y="304" fill="#596273" font-family="-apple-system, BlinkMacSystemFont, 'Segoe UI', sans-serif" font-size="32" font-weight="520">Diary first. Location is context.</text>
</svg>
